<svg width="1138" height="239" viewBox="0 0 1138 239" fill="none" xmlns="http://www.w3.org/2000/svg">
<path d="M113.832 159.914H111.832L111.832 159.924L113.832 159.914ZM50.5073 162.18H48.5073L48.5074 162.191L50.5073 162.18ZM50.5073 60H52.5073V58H50.5073V60ZM2.24951 60V58H0.249512V60H2.24951ZM2.24951 170.789H0.249504L0.249519 170.795L2.24951 170.789ZM113.945 202.395V200.395H112.57L112.077 201.679L113.945 202.395ZM115.757 202.395H117.757V200.395H115.757V202.395ZM115.757 234H113.757V236H115.757V234ZM162.089 234V236H164.089V234H162.089ZM162.089 60H164.089V58H162.089V60ZM113.832 60V58H111.832V60H113.832ZM111.832 159.924C111.886 171.109 108.098 179.46 102.384 185.016C96.6492 190.592 88.8407 193.484 80.6401 193.484V197.484C89.7717 197.484 98.6154 194.259 105.172 187.884C111.749 181.489 115.891 172.055 115.832 159.904L111.832 159.924ZM80.6401 193.484C72.0132 193.484 65.0715 190.472 60.2567 185.176C55.4228 179.858 52.5619 172.048 52.5073 162.169L48.5074 162.191C48.5661 172.816 51.6525 181.657 57.297 187.866C62.9607 194.096 71.0288 197.484 80.6401 197.484V193.484ZM52.5073 162.18V60H48.5073V162.18H52.5073ZM50.5073 58H2.24951V62H50.5073V58ZM0.249512 60V170.789H4.24951V60H0.249512ZM0.249519 170.795C0.307232 191.513 6.40064 208.4 17.1438 220.129C27.9021 231.874 43.1592 238.266 61.1558 238.266V234.266C44.1484 234.266 30.009 228.253 20.0935 217.427C10.1628 206.585 4.30507 190.733 4.2495 170.783L0.249519 170.795ZM61.1558 238.266C88.093 238.266 107.679 224.328 115.812 203.11L112.077 201.679C104.578 221.242 86.5545 234.266 61.1558 234.266V238.266ZM113.945 204.395H115.757V200.395H113.945V204.395ZM113.757 202.395V234H117.757V202.395H113.757ZM115.757 236H162.089V232H115.757V236ZM164.089 234V60H160.089V234H164.089ZM162.089 58H113.832V62H162.089V58ZM111.832 60V159.914H115.832V60H111.832ZM232.998 133.406L230.998 133.396V133.406H232.998ZM296.888 131.82L294.888 131.81V131.82H296.888ZM296.888 234H294.888V236H296.888V234ZM345.146 234V236H347.146V234H345.146ZM232.771 90.6992V92.6992H234.144L234.637 91.4186L232.771 90.6992ZM230.732 90.6992H228.732V92.6992H230.732V90.6992ZM230.732 60H232.732V58H230.732V60ZM184.74 60V58H182.74V60H184.74ZM184.74 234H182.74V236H184.74V234ZM232.998 234V236H234.998V234H232.998ZM234.998 133.416C235.052 122.596 238.297 114.232 243.665 108.588C249.025 102.953 256.684 99.8359 265.963 99.8359V95.8359C255.757 95.8359 246.99 99.2887 240.767 105.832C234.552 112.365 231.056 121.787 230.998 133.396L234.998 133.416ZM265.963 99.8359C275.195 99.8359 282.377 102.846 287.255 108.19C292.153 113.557 294.943 121.516 294.888 131.81L298.888 131.831C298.947 120.827 295.96 111.795 290.209 105.494C284.438 99.1701 276.101 95.8359 265.963 95.8359V99.8359ZM294.888 131.82V234H298.888V131.82H294.888ZM296.888 236H345.146V232H296.888V236ZM347.146 234V123.211H343.146V234H347.146ZM347.146 123.211C347.146 102.547 341.081 85.6523 330.187 73.9047C319.279 62.142 303.709 55.7344 285.107 55.7344V59.7344C302.755 59.7344 317.205 65.7876 327.254 76.6246C337.317 87.4766 343.146 103.32 343.146 123.211H347.146ZM285.107 55.7344C258.552 55.7344 239.053 68.8418 230.905 89.9799L234.637 91.4186C242.122 72.0019 260.006 59.7344 285.107 59.7344V55.7344ZM232.771 88.6992H230.732V92.6992H232.771V88.6992ZM232.732 90.6992V60H228.732V90.6992H232.732ZM230.732 58H184.74V62H230.732V58ZM182.74 60V234H186.74V60H182.74ZM184.74 236H232.998V232H184.74V236ZM234.998 234V133.406H230.998V234H234.998ZM367.23 234H365.23V236H367.23V234ZM415.488 234V236H417.488V234H415.488ZM415.488 178.719L413.985 177.399L413.488 177.965V178.719H415.488ZM428.516 163.879L430.172 162.758L428.721 160.614L427.013 162.559L428.516 163.879ZM475.98 234L474.324 235.121L474.919 236H475.98V234ZM532.508 234V236H536.31L534.156 232.867L532.508 234ZM464.652 135.332L463.134 134.03L462.133 135.198L463.004 136.465L464.652 135.332ZM529.223 60L530.741 61.3016L533.571 58H529.223V60ZM473.828 60V58H472.899L472.3 58.7101L473.828 60ZM418.094 126.043V128.043H419.023L419.622 127.333L418.094 126.043ZM415.488 126.043H413.488V128.043H415.488V126.043ZM415.488 1.99999H417.488V-7.62939e-06H415.488V1.99999ZM367.23 1.99999V-7.62939e-06H365.23V1.99999H367.23ZM367.23 236H415.488V232H367.23V236ZM417.488 234V178.719H413.488V234H417.488ZM416.991 180.038L430.019 165.198L427.013 162.559L413.985 177.399L416.991 180.038ZM426.859 165L474.324 235.121L477.637 232.879L430.172 162.758L426.859 165ZM475.98 236H532.508V232H475.98V236ZM534.156 232.867L466.3 134.199L463.004 136.465L530.86 235.133L534.156 232.867ZM466.171 136.634L530.741 61.3016L527.704 58.6984L463.134 134.03L466.171 136.634ZM529.223 58H473.828V62H529.223V58ZM472.3 58.7101L416.565 124.753L419.622 127.333L475.357 61.2899L472.3 58.7101ZM418.094 124.043H415.488V128.043H418.094V124.043ZM417.488 126.043V1.99999H413.488V126.043H417.488ZM415.488 -7.62939e-06H367.23V3.99999H415.488V-7.62939e-06ZM365.23 1.99999V234H369.23V1.99999H365.23ZM585.206 133.406L583.206 133.396V133.406H585.206ZM649.097 131.82L647.097 131.81V131.82H649.097ZM649.097 234H647.097V236H649.097V234ZM697.355 234V236H699.355V234H697.355ZM584.98 90.6992V92.6992H586.352L586.846 91.4186L584.98 90.6992ZM582.941 90.6992H580.941V92.6992H582.941V90.6992ZM582.941 60H584.941V58H582.941V60ZM536.948 60V58H534.948V60H536.948ZM536.948 234H534.948V236H536.948V234ZM585.206 234V236H587.206V234H585.206ZM587.206 133.416C587.261 122.596 590.505 114.232 595.874 108.588C601.233 102.953 608.893 99.8359 618.171 99.8359V95.8359C607.965 95.8359 599.199 99.2887 592.975 105.832C586.761 112.365 583.265 121.787 583.206 133.396L587.206 133.416ZM618.171 99.8359C627.404 99.8359 634.586 102.846 639.463 108.19C644.361 113.557 647.152 121.516 647.097 131.81L651.097 131.831C651.155 120.827 648.169 111.795 642.418 105.494C636.647 99.1701 628.31 95.8359 618.171 95.8359V99.8359ZM647.097 131.82V234H651.097V131.82H647.097ZM649.097 236H697.355V232H649.097V236ZM699.355 234V123.211H695.355V234H699.355ZM699.355 123.211C699.355 102.547 693.289 85.6523 682.395 73.9047C671.488 62.142 655.918 55.7344 637.316 55.7344V59.7344C654.963 59.7344 669.413 65.7876 679.462 76.6246C689.526 87.4766 695.355 103.32 695.355 123.211H699.355ZM637.316 55.7344C610.76 55.7344 591.262 68.8418 583.113 89.9799L586.846 91.4186C594.33 72.0019 612.215 59.7344 637.316 59.7344V55.7344ZM584.98 88.6992H582.941V92.6992H584.98V88.6992ZM584.941 90.6992V60H580.941V90.6992H584.941ZM582.941 58H536.948V62H582.941V58ZM534.948 60V234H538.948V60H534.948ZM536.948 236H585.206V232H536.948V236ZM587.206 234V133.406H583.206V234H587.206ZM753.763 234L751.833 234.525L752.235 236H753.763V234ZM804.74 234V236H806.266L806.669 234.527L804.74 234ZM834.646 124.57V122.57H833.119L832.717 124.043L834.646 124.57ZM836.798 124.57L838.727 124.043L838.325 122.57H836.798V124.57ZM866.704 234L864.775 234.527L865.178 236H866.704V234ZM917.794 234V236H919.324L919.724 234.524L917.794 234ZM965.033 60L966.963 60.524L967.648 58H965.033V60ZM916.322 60V58H914.726L914.372 59.5553L916.322 60ZM889.814 176.227V178.227H891.409L891.764 176.671L889.814 176.227ZM888.341 176.227L886.399 176.704L886.773 178.227H888.341V176.227ZM859.794 60L861.737 59.5229L861.362 58H859.794V60ZM811.876 60V58H810.3L809.932 59.5327L811.876 60ZM783.783 176.906V178.906H785.359L785.727 177.374L783.783 176.906ZM782.197 176.906L780.248 177.356L780.605 178.906H782.197V176.906ZM755.236 60L757.185 59.5506L756.827 58H755.236V60ZM706.411 60V58H703.794L704.482 60.5252L706.411 60ZM753.763 236H804.74V232H753.763V236ZM806.669 234.527L836.575 125.098L832.717 124.043L802.81 233.473L806.669 234.527ZM834.646 126.57H836.798V122.57H834.646V126.57ZM834.869 125.098L864.775 234.527L868.634 233.473L838.727 124.043L834.869 125.098ZM866.704 236H917.794V232H866.704V236ZM919.724 234.524L966.963 60.524L963.102 59.476L915.864 233.476L919.724 234.524ZM965.033 58H916.322V62H965.033V58ZM914.372 59.5553L887.864 175.782L891.764 176.671L918.272 60.4447L914.372 59.5553ZM889.814 174.227H888.341V178.227H889.814V174.227ZM890.283 175.75L861.737 59.5229L857.852 60.477L886.399 176.704L890.283 175.75ZM859.794 58H811.876V62H859.794V58ZM809.932 59.5327L781.838 176.439L785.727 177.374L813.821 60.4673L809.932 59.5327ZM783.783 174.906H782.197V178.906H783.783V174.906ZM784.145 176.457L757.185 59.5506L753.287 60.4494L780.248 177.356L784.145 176.457ZM755.236 58H706.411V62H755.236V58ZM704.482 60.5252L751.833 234.525L755.693 233.475L708.341 59.4748L704.482 60.5252ZM1023.08 133.406L1021.08 133.396V133.406H1023.08ZM1086.97 131.82L1084.97 131.81V131.82H1086.97ZM1086.97 234H1084.97V236H1086.97V234ZM1135.23 234V236H1137.23V234H1135.23ZM1022.86 90.6992V92.6992H1024.23L1024.72 91.4186L1022.86 90.6992ZM1020.82 90.6992H1018.82V92.6992H1020.82V90.6992ZM1020.82 60H1022.82V58H1020.82V60ZM974.826 60V58H972.826V60H974.826ZM974.826 234H972.826V236H974.826V234ZM1023.08 234V236H1025.08V234H1023.08ZM1025.08 133.416C1025.14 122.596 1028.38 114.232 1033.75 108.588C1039.11 102.953 1046.77 99.8359 1056.05 99.8359V95.8359C1045.84 95.8359 1037.08 99.2887 1030.85 105.832C1024.64 112.365 1021.14 121.787 1021.08 133.396L1025.08 133.416ZM1056.05 99.8359C1065.28 99.8359 1072.46 102.846 1077.34 108.19C1082.24 113.557 1085.03 121.516 1084.97 131.81L1088.97 131.831C1089.03 120.827 1086.05 111.795 1080.3 105.494C1074.52 99.1701 1066.19 95.8359 1056.05 95.8359V99.8359ZM1084.97 131.82V234H1088.97V131.82H1084.97ZM1086.97 236H1135.23V232H1086.97V236ZM1137.23 234V123.211H1133.23V234H1137.23ZM1137.23 123.211C1137.23 102.547 1131.17 85.6523 1120.27 73.9047C1109.36 62.142 1093.8 55.7344 1075.19 55.7344V59.7344C1092.84 59.7344 1107.29 65.7876 1117.34 76.6246C1127.4 87.4766 1133.23 103.32 1133.23 123.211H1137.23ZM1075.19 55.7344C1048.64 55.7344 1029.14 68.8418 1020.99 89.9799L1024.72 91.4186C1032.21 72.0019 1050.09 59.7344 1075.19 59.7344V55.7344ZM1022.86 88.6992H1020.82V92.6992H1022.86V88.6992ZM1022.82 90.6992V60H1018.82V90.6992H1022.82ZM1020.82 58H974.826V62H1020.82V58ZM972.826 60V234H976.826V60H972.826ZM974.826 236H1023.08V232H974.826V236ZM1025.08 234V133.406H1021.08V234H1025.08Z" fill="#343434"/>
</svg>
